<svg xmlns="http://www.w3.org/2000/svg" version="1.1" xmlns:xlink="http://www.w3.org/1999/xlink" viewBox="0 0 200 200"><rect width="200" height="200" fill="url('#gradient')"></rect><defs><linearGradient id="gradient" gradientTransform="rotate(45 0.5 0.5)"><stop offset="0%" stop-color="#bcab12"></stop><stop offset="100%" stop-color="#d27162"></stop></linearGradient></defs><g><g fill="#2e3f4e" transform="matrix(5.450322580645161,0,0,5.450322580645161,28.16115168740673,138.75116914256927)" stroke="#8d9167" stroke-width="0.85"><path d="M8.87 0L6.36-5.02L4.50-5.02L4.50 0L1.07 0L1.07-14.22L6.67-14.22Q9.20-14.22 10.63-13.10Q12.05-11.97 12.05-9.92L12.05-9.92Q12.05-8.44 11.45-7.46Q10.85-6.48 9.57-5.88L9.57-5.88L12.54-0.15L12.54 0L8.87 0ZM4.50-11.57L4.50-7.67L6.67-7.67Q7.65-7.67 8.14-8.18Q8.63-8.69 8.63-9.61Q8.63-10.53 8.13-11.05Q7.64-11.57 6.67-11.57L6.67-11.57L4.50-11.57ZM18.80 0L14.12 0L14.12-14.22L18.70-14.22Q20.59-14.22 22.09-13.36Q23.59-12.51 24.44-10.95Q25.28-9.39 25.29-7.46L25.29-7.46L25.29-6.81Q25.29-4.85 24.47-3.31Q23.64-1.76 22.14-0.88Q20.64-0.01 18.80 0L18.80 0ZM18.70-11.57L17.55-11.57L17.55-2.64L18.74-2.64Q20.21-2.64 21.01-3.69Q21.80-4.74 21.80-6.81L21.80-6.81L21.80-7.42Q21.80-9.48 21.01-10.53Q20.21-11.57 18.70-11.57L18.70-11.57Z"></path></g></g></svg>